<svg viewBox="0 0 260 260" xmlns="http://www.w3.org/2000/svg">
<defs><clipPath id="ar3"><circle cx="130" cy="130" r="128"/></clipPath></defs>
<g clip-path="url(#ar3)">
<rect width="260" height="260" fill="#CDB9E0"/>
<rect y="162" width="260" height="98" fill="#5C3F80"/>
<!-- binder rings -->
<rect x="86" y="34" width="9" height="20" rx="4.5" fill="#2A1438"/>
<rect x="165" y="34" width="9" height="20" rx="4.5" fill="#2A1438"/>
<!-- calendar -->
<rect x="56" y="44" width="148" height="170" rx="16" fill="#FFFFFF"/>
<path d="M56 60 a16 16 0 0 1 16 -16 h116 a16 16 0 0 1 16 16 v22 h-148 z" fill="#6A2E96"/>
<rect x="72" y="55" width="116" height="6" rx="3" fill="#C9A9E0"/>
<rect x="74" y="100" width="20" height="20" rx="5" fill="#ECE4F4"/><rect x="104" y="100" width="20" height="20" rx="5" fill="#ECE4F4"/><rect x="134" y="100" width="20" height="20" rx="5" fill="#ECE4F4"/><rect x="164" y="100" width="20" height="20" rx="5" fill="#ECE4F4"/><rect x="74" y="130" width="20" height="20" rx="5" fill="#ECE4F4"/><rect x="104" y="130" width="20" height="20" rx="5" fill="#6A2E96"/><path d="M109 140 l4 4 7 -8" stroke="#fff" stroke-width="2.4" fill="none" stroke-linecap="round" stroke-linejoin="round"/><rect x="134" y="130" width="20" height="20" rx="5" fill="#ECE4F4"/><rect x="164" y="130" width="20" height="20" rx="5" fill="#ECE4F4"/><rect x="74" y="160" width="20" height="20" rx="5" fill="#ECE4F4"/><rect x="104" y="160" width="20" height="20" rx="5" fill="#ECE4F4"/><rect x="134" y="160" width="20" height="20" rx="5" fill="#ECE4F4"/><rect x="164" y="160" width="20" height="20" rx="5" fill="#ECE4F4"/>
<!-- confirmed badge -->
<circle cx="192" cy="190" r="22" fill="#5FC93C" stroke="#FFFFFF" stroke-width="4"/>
<path d="M183 190 l6 7 12 -14" stroke="#FFFFFF" stroke-width="4.5" fill="none" stroke-linecap="round" stroke-linejoin="round"/>
</g></svg>