<svg viewBox="0 0 260 260" xmlns="http://www.w3.org/2000/svg">
<defs><clipPath id="c2"><circle cx="130" cy="130" r="128"/></clipPath><clipPath id="a1"><circle cx="42" cy="103" r="20"/></clipPath><clipPath id="a2"><circle cx="38" cy="179" r="20"/></clipPath><clipPath id="a3"><circle cx="178" cy="141" r="20"/></clipPath></defs>
<g clip-path="url(#c2)">
<rect width="260" height="260" fill="#CDB9E0"/>
<rect y="162" width="260" height="98" fill="#5C3F80"/>

<!-- sparkle -->
<g stroke="#3A2350" stroke-width="4" stroke-linecap="round">
  <path d="M196 96 l11 -6"/><path d="M201 105 l12 -2"/><path d="M199 86 l7 -10"/>
</g>

<!-- phone -->
<rect x="72" y="64" width="116" height="168" rx="18" fill="#2A1438"/>
<rect x="79" y="71" width="102" height="154" rx="12" fill="#FFFFFF"/>
<!-- ink-drop card -->
<rect x="104" y="80" width="52" height="58" rx="9" fill="#ECE4F4"/>
<path d="M130 89 C130 89 145 111 145 120 A15 15 0 1 1 115 120 C115 111 130 89 130 89 Z" fill="#6A2E96"/>
<!-- placeholder bars -->
<rect x="98" y="148" width="64" height="5" rx="2.5" fill="#D7CCE3"/>
<rect x="98" y="159" width="42" height="5" rx="2.5" fill="#D7CCE3"/>
<!-- quotes received -->
<circle cx="100" cy="183" r="7" fill="#3DBE4E"/>
<path d="M96.6 183 l2.2 2.3 4.2 -4.6" stroke="#fff" stroke-width="1.8" fill="none" stroke-linecap="round" stroke-linejoin="round"/>
<text x="111" y="186" font-family="Arial, sans-serif" font-size="8.5" font-weight="800" fill="#311A41">Quotes received</text>
<rect x="98" y="198" width="64" height="5" rx="2.5" fill="#D7CCE3"/>
<rect x="98" y="208" width="40" height="5" rx="2.5" fill="#D7CCE3"/>

<!-- bubble 1 (top-left, £80) -->
<path d="M96 124 l18 12 -16 4 z" fill="#FFFFFF"/>
<rect x="14" y="74" width="96" height="58" rx="14" fill="#FFFFFF"/>
<g clip-path="url(#a1)"><rect x="22" y="83" width="40" height="40" fill="#E7DCF0"/><ellipse cx="42" cy="122" rx="19.2" ry="13.2" fill="#311A41"/><ellipse cx="42" cy="102" rx="10.4" ry="12.0" fill="#F3C9A8"/><ellipse cx="52.0" cy="92.0" rx="4.4" ry="6.0" fill="#4A2E1E" transform="rotate(20 52.0 92.0)"/><path d="M31.0 102.0 C30.0 88.0 54.0 88.0 53.0 102.0 C53.0 94.0 48.0 90.6 42.0 90.6 C36.0 90.6 31.0 94.0 31.0 102.0 Z" fill="#4A2E1E"/><circle cx="38.4" cy="102.0" r="1.6" fill="#2A1438"/><circle cx="45.6" cy="102.0" r="1.6" fill="#2A1438"/></g>
<rect x="68" y="88" width="34" height="6" rx="3" fill="#D7CCE3"/>
<rect x="68" y="99" width="22" height="6" rx="3" fill="#D7CCE3"/>
<text x="68" y="122" font-family="Arial, sans-serif" font-size="22" font-weight="800" fill="#311A41">&#163;80</text>
<circle cx="104" cy="76" r="12" fill="#3DBE4E"/>
<text x="104" y="81" font-family="Arial, sans-serif" font-size="14" font-weight="800" fill="#fff" text-anchor="middle">1</text>

<!-- bubble 2 (bottom-left, £95) -->
<path d="M92 178 l18 -6 -14 -10 z" fill="#FFFFFF"/>
<rect x="10" y="150" width="96" height="58" rx="14" fill="#FFFFFF"/>
<g clip-path="url(#a2)"><rect x="18" y="159" width="40" height="40" fill="#E7DCF0"/><ellipse cx="38" cy="198" rx="19.2" ry="13.2" fill="#311A41"/><ellipse cx="38" cy="178" rx="10.4" ry="12.0" fill="#E9B58C"/><path d="M26.4 173.0 C26.4 162.0 49.6 162.0 49.6 173.0 Z" fill="#1C1022"/><rect x="25.6" y="171.0" width="10.0" height="3.2" rx="1.6" fill="#1C1022"/><circle cx="34.4" cy="178.0" r="1.6" fill="#2A1438"/><circle cx="41.6" cy="178.0" r="1.6" fill="#2A1438"/></g>
<rect x="64" y="164" width="32" height="6" rx="3" fill="#D7CCE3"/>
<rect x="64" y="175" width="20" height="6" rx="3" fill="#D7CCE3"/>
<text x="64" y="198" font-family="Arial, sans-serif" font-size="22" font-weight="800" fill="#311A41">&#163;95</text>
<circle cx="100" cy="152" r="12" fill="#3DBE4E"/>
<text x="100" y="157" font-family="Arial, sans-serif" font-size="14" font-weight="800" fill="#fff" text-anchor="middle">1</text>

<!-- bubble 3 (right, £120) -->
<path d="M164 150 l-18 8 14 10 z" fill="#FFFFFF"/>
<rect x="150" y="112" width="100" height="58" rx="14" fill="#FFFFFF"/>
<g clip-path="url(#a3)"><rect x="158" y="121" width="40" height="40" fill="#E7DCF0"/><ellipse cx="178" cy="160" rx="19.2" ry="13.2" fill="#311A41"/><ellipse cx="178" cy="140" rx="10.4" ry="12.0" fill="#E9B58C"/><path d="M167.0 139.0 C166.0 126.6 190.0 126.6 189.0 139.0 C189.0 131.0 167.0 131.0 167.0 139.0 Z" fill="#2E2118"/><path d="M168.0 140.0 C168.0 151.0 188.0 151.0 188.0 140.0 C184.0 145.4 172.0 145.4 168.0 140.0 Z" fill="#2E2118"/><circle cx="174.4" cy="140.0" r="1.6" fill="#2A1438"/><circle cx="181.6" cy="140.0" r="1.6" fill="#2A1438"/></g>
<rect x="204" y="126" width="32" height="6" rx="3" fill="#D7CCE3"/>
<rect x="204" y="137" width="22" height="6" rx="3" fill="#D7CCE3"/>
<text x="204" y="160" font-family="Arial, sans-serif" font-size="22" font-weight="800" fill="#311A41">&#163;120</text>
<circle cx="244" cy="114" r="12" fill="#3DBE4E"/>
<text x="244" y="119" font-family="Arial, sans-serif" font-size="14" font-weight="800" fill="#fff" text-anchor="middle">1</text>

</g></svg>